{
  "accessors": [
    {
      "bufferView": 3,
      "componentType": 5126,
      "count": 3586,
      "max": [
        1.2375439405441284,
        5.499815464019775,
        0.5929672122001648
      ],
      "min": [
        -1.2347978353500366,
        1.3723704814910889,
        -1.2968239784240723
      ],
      "type": "VEC3"
    },
    {
      "bufferView": 3,
      "byteOffset": 43032,
      "componentType": 5126,
      "count": 3586,
      "max": [
        0.9994668364524841,
        0.9999995231628418,
        0.999487578868866
      ],
      "min": [
        -0.998306155204773,
        -0.9999996423721313,
        -0.9995306730270386
      ],
      "type": "VEC3"
    },
    {
      "bufferView": 4,
      "componentType": 5126,
      "count": 3586,
      "max": [
        0.9999992251396179,
        0.9981381297111511,
        0.9997695088386536,
        1.0
      ],
      "min": [
        -1.0,
        -0.9982921481132507,
        -0.9991487264633179,
        -1.0
      ],
      "type": "VEC4"
    },
    {
      "bufferView": 2,
      "componentType": 5126,
      "count": 3586,
      "max": [
        0.9971233010292053,
        0.9956455826759338
      ],
      "min": [
        0.004666149616241455,
        0.045755743980407715
      ],
      "type": "VEC2"
    },
    {
      "bufferView": 1,
      "componentType": 5125,
      "count": 17268,
      "type": "SCALAR"
    },
    {
      "bufferView": 3,
      "byteOffset": 86064,
      "componentType": 5126,
      "count": 4042,
      "max": [
        1.2246869802474976,
        5.228793144226074,
        1.2968239784240723
      ],
      "min": [
        -1.3872984647750854,
        -2.384185791015625e-07,
        -1.0913969278335571
      ],
      "type": "VEC3"
    },
    {
      "bufferView": 3,
      "byteOffset": 134568,
      "componentType": 5126,
      "count": 4042,
      "max": [
        1.0,
        1.0,
        1.0
      ],
      "min": [
        -1.0,
        -1.0,
        -1.0
      ],
      "type": "VEC3"
    },
    {
      "bufferView": 4,
      "byteOffset": 57376,
      "componentType": 5126,
      "count": 4042,
      "max": [
        1.0,
        0.9982324838638306,
        1.0,
        1.0
      ],
      "min": [
        -0.9999966025352478,
        -0.9999592304229736,
        -0.9999187588691711,
        -1.0
      ],
      "type": "VEC4"
    },
    {
      "bufferView": 2,
      "byteOffset": 28688,
      "componentType": 5126,
      "count": 4042,
      "max": [
        1.0,
        0.985706090927124
      ],
      "min": [
        0.0,
        -7.270253192873111e-17
      ],
      "type": "VEC2"
    },
    {
      "bufferView": 1,
      "byteOffset": 69072,
      "componentType": 5125,
      "count": 13497,
      "type": "SCALAR"
    },
    {
      "bufferView": 5,
      "componentType": 5126,
      "count": 14,
      "max": [
        10.0,
        9.803599142069793e-15,
        10.0,
        0.0,
        9.984884262084961,
        10.0,
        3.885780586188048e-15,
        0.0,
        9.166101455688477,
        9.984884262084961,
        10.0,
        0.0,
        12.04987907409668,
        0.4027712941169739,
        11.638927459716797,
        1.0
      ],
      "min": [
        -1.4543179833485993e-15,
        -7.23071369489528e-15,
        -10.0,
        0.0,
        -2.4420944214270417e-17,
        0.5496266484260559,
        -9.609334676715861e-16,
        0.0,
        -9.860588073730469,
        -9.04357624053955,
        -9.486626707713025e-15,
        0.0,
        -32.48796081542969,
        -52.52894973754883,
        -4.598700046539307,
        1.0
      ],
      "type": "MAT4"
    },
    {
      "bufferView": 0,
      "componentType": 5123,
      "count": 3586,
      "type": "VEC4"
    },
    {
      "bufferView": 4,
      "byteOffset": 122048,
      "componentType": 5126,
      "count": 3586,
      "max": [
        1.0,
        0.5,
        0.29402443766593933,
        0.18661437928676605
      ],
      "min": [
        0.30364254117012024,
        0.0,
        0.0,
        0.0
      ],
      "type": "VEC4"
    },
    {
      "bufferView": 0,
      "byteOffset": 28688,
      "componentType": 5123,
      "count": 4042,
      "type": "VEC4"
    },
    {
      "bufferView": 4,
      "byteOffset": 179424,
      "componentType": 5126,
      "count": 4042,
      "max": [
        1.0,
        0.5,
        0.2816864848136902,
        0.1703251749277115
      ],
      "min": [
        0.2820628881454468,
        0.0,
        0.0,
        0.0
      ],
      "type": "VEC4"
    },
    {
      "bufferView": 6,
      "componentType": 5126,
      "count": 68,
      "max": [
        4.541666507720947
      ],
      "min": [
        0.0416666679084301
      ],
      "type": "SCALAR"
    },
    {
      "bufferView": 7,
      "componentType": 5126,
      "count": 68,
      "max": [
        5.271146297454834,
        0.8965042233467102,
        4.440892098500626e-16
      ],
      "min": [
        5.271146297454834,
        0.8965042233467102,
        -5.828670879282072e-16
      ],
      "type": "VEC3"
    },
    {
      "bufferView": 6,
      "byteOffset": 272,
      "componentType": 5126,
      "count": 143,
      "max": [
        4.541666507720947
      ],
      "min": [
        0.0416666679084301
      ],
      "type": "SCALAR"
    },
    {
      "bufferView": 8,
      "componentType": 5126,
      "count": 143,
      "max": [
        0.9954538345336914,
        0.44221368432044983,
        0.10543593019247055,
        0.28790736198425293
      ],
      "min": [
        0.8442960977554321,
        0.04768645390868187,
        -0.13465173542499542,
        -0.19835971295833588
      ],
      "type": "VEC4"
    },
    {
      "bufferView": 6,
      "byteOffset": 844,
      "componentType": 5126,
      "count": 28,
      "max": [
        4.166666507720947
      ],
      "min": [
        0.0416666679084301
      ],
      "type": "SCALAR"
    },
    {
      "bufferView": 7,
      "byteOffset": 816,
      "componentType": 5126,
      "count": 28,
      "max": [
        0.9287307262420654,
        0.12340708822011948,
        12.24755859375
      ],
      "min": [
        -2.5360772609710693,
        -1.5116708278656006,
        12.24755859375
      ],
      "type": "VEC3"
    },
    {
      "bufferView": 6,
      "byteOffset": 956,
      "componentType": 5126,
      "count": 55,
      "max": [
        4.166666507720947
      ],
      "min": [
        0.0416666679084301
      ],
      "type": "SCALAR"
    },
    {
      "bufferView": 8,
      "byteOffset": 2288,
      "componentType": 5126,
      "count": 55,
      "max": [
        0.378557950258255,
        0.5972385406494141,
        -0.378557950258255,
        0.5972385406494141
      ],
      "min": [
        0.378557950258255,
        0.5972385406494141,
        -0.378557950258255,
        0.5972385406494141
      ],
      "type": "VEC4"
    },
    {
      "bufferView": 6,
      "byteOffset": 1176,
      "componentType": 5126,
      "count": 28,
      "max": [
        4.166666507720947
      ],
      "min": [
        0.0416666679084301
      ],
      "type": "SCALAR"
    },
    {
      "bufferView": 7,
      "byteOffset": 1152,
      "componentType": 5126,
      "count": 28,
      "max": [
        1.5286740064620972,
        0.12340708822011948,
        -11.85676383972168
      ],
      "min": [
        -1.936133861541748,
        -1.5116708278656006,
        -11.85676383972168
      ],
      "type": "VEC3"
    },
    {
      "bufferView": 6,
      "byteOffset": 1288,
      "componentType": 5126,
      "count": 55,
      "max": [
        4.166666507720947
      ],
      "min": [
        0.0416666679084301
      ],
      "type": "SCALAR"
    },
    {
      "bufferView": 8,
      "byteOffset": 3168,
      "componentType": 5126,
      "count": 55,
      "max": [
        0.378557950258255,
        0.5972385406494141,
        -0.378557950258255,
        0.5972385406494141
      ],
      "min": [
        0.378557950258255,
        0.5972385406494141,
        -0.378557950258255,
        0.5972385406494141
      ],
      "type": "VEC4"
    },
    {
      "bufferView": 6,
      "byteOffset": 1508,
      "componentType": 5126,
      "count": 13,
      "max": [
        3.1666667461395264
      ],
      "min": [
        0.0416666679084301
      ],
      "type": "SCALAR"
    },
    {
      "bufferView": 7,
      "byteOffset": 1488,
      "componentType": 5126,
      "count": 13,
      "max": [
        13.697057723999023,
        -2.220446049250313e-16,
        1.3355705815884468e-16
      ],
      "min": [
        13.697057723999023,
        -1.3322676295501878e-14,
        -9.860761315262648e-32
      ],
      "type": "VEC3"
    },
    {
      "bufferView": 6,
      "byteOffset": 1560,
      "componentType": 5126,
      "count": 88,
      "max": [
        3.1666667461395264
      ],
      "min": [
        0.0416666679084301
      ],
      "type": "SCALAR"
    },
    {
      "bufferView": 8,
      "byteOffset": 4048,
      "componentType": 5126,
      "count": 88,
      "max": [
        0.9694157838821411,
        0.3982597291469574,
        0.024924172088503838,
        0.03879082575440407
      ],
      "min": [
        0.9150159955024719,
        0.24533382058143616,
        -0.029036307707428932,
        -0.06430362910032272
      ],
      "type": "VEC4"
    }
  ],
  "animations": [
    {
      "channels": [
        {
          "sampler": 0,
          "target": {
            "node": 13,
            "path": "translation"
          }
        },
        {
          "sampler": 1,
          "target": {
            "node": 13,
            "path": "rotation"
          }
        },
        {
          "sampler": 2,
          "target": {
            "node": 21,
            "path": "translation"
          }
        },
        {
          "sampler": 3,
          "target": {
            "node": 21,
            "path": "rotation"
          }
        },
        {
          "sampler": 4,
          "target": {
            "node": 22,
            "path": "translation"
          }
        },
        {
          "sampler": 5,
          "target": {
            "node": 22,
            "path": "rotation"
          }
        },
        {
          "sampler": 6,
          "target": {
            "node": 12,
            "path": "translation"
          }
        },
        {
          "sampler": 7,
          "target": {
            "node": 12,
            "path": "rotation"
          }
        }
      ],
      "name": "Take 001",
      "samplers": [
        {
          "input": 15,
          "interpolation": "LINEAR",
          "output": 16
        },
        {
          "input": 17,
          "interpolation": "LINEAR",
          "output": 18
        },
        {
          "input": 19,
          "interpolation": "LINEAR",
          "output": 20
        },
        {
          "input": 21,
          "interpolation": "LINEAR",
          "output": 22
        },
        {
          "input": 23,
          "interpolation": "LINEAR",
          "output": 24
        },
        {
          "input": 25,
          "interpolation": "LINEAR",
          "output": 26
        },
        {
          "input": 27,
          "interpolation": "LINEAR",
          "output": 28
        },
        {
          "input": 29,
          "interpolation": "LINEAR",
          "output": 30
        }
      ]
    }
  ],
  "asset": {
    "extras": {
      "author": "BavartApp (https://sketchfab.com/BavartApp)",
      "license": "CC-BY-4.0 (http://creativecommons.org/licenses/by/4.0/)",
      "source": "https://sketchfab.com/3d-models/painted02-sk-buste02-idle002-04077b9252604328abc2ee57207a9c3a",
      "title": "Painted02_SK_Buste02_Idle002"
    },
    "generator": "Sketchfab-12.16.1",
    "version": "2.0"
  },
  "bufferViews": [
    {
      "buffer": 0,
      "byteLength": 61024,
      "byteStride": 8,
      "name": "shortBufferViews",
      "target": 34962
    },
    {
      "buffer": 0,
      "byteLength": 123060,
      "byteOffset": 61024,
      "name": "floatBufferViews",
      "target": 34963
    },
    {
      "buffer": 0,
      "byteLength": 61024,
      "byteOffset": 184084,
      "byteStride": 8,
      "name": "floatBufferViews",
      "target": 34962
    },
    {
      "buffer": 0,
      "byteLength": 183072,
      "byteOffset": 245108,
      "byteStride": 12,
      "name": "floatBufferViews",
      "target": 34962
    },
    {
      "buffer": 0,
      "byteLength": 244096,
      "byteOffset": 428180,
      "byteStride": 16,
      "name": "floatBufferViews",
      "target": 34962
    },
    {
      "buffer": 0,
      "byteLength": 896,
      "byteOffset": 672276,
      "name": "floatBufferViews"
    },
    {
      "buffer": 0,
      "byteLength": 1912,
      "byteOffset": 673172,
      "name": "floatBufferViews"
    },
    {
      "buffer": 0,
      "byteLength": 1644,
      "byteOffset": 675084,
      "byteStride": 12,
      "name": "floatBufferViews"
    },
    {
      "buffer": 0,
      "byteLength": 5456,
      "byteOffset": 676728,
      "byteStride": 16,
      "name": "floatBufferViews"
    }
  ],
  "buffers": [
    {
      "byteLength": 682184,
      "uri": "scene.bin"
    }
  ],
  "images": [
    {
      "uri": "textures/M_Buste_baseColor.png"
    },
    {
      "uri": "textures/M_Buste_metallicRoughness.png"
    },
    {
      "uri": "textures/M_Buste_normal.png"
    },
    {
      "uri": "textures/M_Deco_baseColor.png"
    },
    {
      "uri": "textures/M_Deco_metallicRoughness.png"
    },
    {
      "uri": "textures/M_Deco_normal.png"
    }
  ],
  "materials": [
    {
      "doubleSided": true,
      "name": "M_Buste",
      "normalTexture": {
        "index": 2
      },
      "occlusionTexture": {
        "index": 1
      },
      "pbrMetallicRoughness": {
        "baseColorTexture": {
          "index": 0
        },
        "metallicRoughnessTexture": {
          "index": 1
        }
      }
    },
    {
      "doubleSided": true,
      "name": "M_Deco",
      "normalTexture": {
        "index": 5
      },
      "occlusionTexture": {
        "index": 4
      },
      "pbrMetallicRoughness": {
        "baseColorTexture": {
          "index": 3
        },
        "metallicRoughnessTexture": {
          "index": 4
        }
      }
    }
  ],
  "meshes": [
    {
      "name": "LP_Buste_M_Buste_0",
      "primitives": [
        {
          "attributes": {
            "JOINTS_0": 11,
            "NORMAL": 1,
            "POSITION": 0,
            "TANGENT": 2,
            "TEXCOORD_0": 3,
            "WEIGHTS_0": 12
          },
          "indices": 4,
          "material": 0,
          "mode": 4
        }
      ]
    },
    {
      "name": "LP_Buste_M_Deco_0",
      "primitives": [
        {
          "attributes": {
            "JOINTS_0": 13,
            "NORMAL": 6,
            "POSITION": 5,
            "TANGENT": 7,
            "TEXCOORD_0": 8,
            "WEIGHTS_0": 14
          },
          "indices": 9,
          "material": 1,
          "mode": 4
        }
      ]
    }
  ],
  "nodes": [
    {
      "children": [
        1
      ],
      "matrix": [
        1.0,
        0.0,
        0.0,
        0.0,
        0.0,
        2.220446049250313e-16,
        -1.0,
        0.0,
        0.0,
        1.0,
        2.220446049250313e-16,
        0.0,
        0.0,
        0.0,
        0.0,
        1.0
      ],
      "name": "Sketchfab_model"
    },
    {
      "children": [
        2
      ],
      "matrix": [
        0.009999999776482582,
        0.0,
        0.0,
        0.0,
        0.0,
        0.0,
        0.009999999776482582,
        0.0,
        0.0,
        -0.009999999776482582,
        0.0,
        0.0,
        0.0,
        0.0,
        0.0,
        1.0
      ],
      "name": "4e7989eb2a44446a8e0e49367743ac8b.fbx"
    },
    {
      "children": [
        3
      ],
      "name": "Object_2"
    },
    {
      "children": [
        4
      ],
      "name": "RootNode"
    },
    {
      "children": [
        5
      ],
      "name": "Sk_Buste_002"
    },
    {
      "children": [
        6,
        8,
        9,
        7,
        23
      ],
      "name": "Object_5"
    },
    {
      "children": [
        10
      ],
      "name": "_rootJoint"
    },
    {
      "matrix": [
        10.0,
        4.930380657631325e-32,
        0.0,
        0.0,
        -4.930380657631326e-32,
        10.000000000000002,
        -9.415536050388898e-32,
        0.0,
        -4.642217682406786e-64,
        9.415536050388898e-32,
        10.000000000000002,
        0.0,
        -3.3974647464241063e-06,
        38.3462119102478,
        0.4125738143920916,
        1.0
      ],
      "name": "Object_7"
    },
    {
      "mesh": 0,
      "name": "Object_8",
      "skin": 0
    },
    {
      "mesh": 1,
      "name": "Object_9",
      "skin": 0
    },
    {
      "children": [
        11
      ],
      "name": "joint1_00",
      "rotation": [
        0.47849494218826294,
        0.5206176042556763,
        0.47849494218826294,
        0.5206176042556763
      ]
    },
    {
      "children": [
        12
      ],
      "name": "joint2_01",
      "rotation": [
        4.9230855396901207e-32,
        5.343517036903845e-33,
        0.014639445580542088,
        0.9998928308486938
      ],
      "translation": [
        13.757844924926758,
        -3.774758283725532e-15,
        -1.3805065841367707e-30
      ]
    },
    {
      "children": [
        13,
        21,
        22
      ],
      "name": "joint3_02",
      "rotation": [
        0.9694157838821411,
        0.24542425572872162,
        1.5027901385869412e-17,
        5.935959910499344e-17
      ],
      "translation": [
        13.697057723999023,
        -1.3322676295501878e-14,
        1.3355705815884468e-16
      ]
    },
    {
      "children": [
        14
      ],
      "name": "joint4_03",
      "rotation": [
        0.9675217270851135,
        0.25278785824775696,
        1.5478790920327167e-17,
        5.92436217656686e-17
      ],
      "translation": [
        5.271146297454834,
        0.8965042233467102,
        -5.121042085091292e-16
      ]
    },
    {
      "children": [
        15,
        16
      ],
      "name": "joint5_04",
      "rotation": [
        -9.68646136391142e-33,
        7.622437281925459e-33,
        -0.6184055805206299,
        0.7858591079711914
      ],
      "translation": [
        16.09995460510254,
        7.105427357601002e-15,
        -8.889922066041998e-16
      ]
    },
    {
      "name": "joint6_05",
      "rotation": [
        -0.0590364895761013,
        -0.7046380043029785,
        -0.0590364895761013,
        0.7046380043029785
      ],
      "translation": [
        10.552303314208984,
        2.208573579788208,
        -5.730812739369309e-15
      ]
    },
    {
      "children": [
        17,
        18,
        19,
        20
      ],
      "name": "joint7_06",
      "rotation": [
        -0.0590364895761013,
        -0.7046380043029785,
        -0.0590364895761013,
        0.7046380043029785
      ],
      "translation": [
        -5.313650131225586,
        -1.3256072998046875,
        -4.230563163757324
      ]
    },
    {
      "name": "joint12_07",
      "rotation": [
        -0.0,
        -1.5407439555097887e-33,
        -5.333929594775943e-34,
        1.0
      ],
      "translation": [
        -2.473337411880493,
        -6.487560272216797,
        -0.6069009900093079
      ]
    },
    {
      "name": "joint11_08",
      "rotation": [
        4.222566358643681e-33,
        -0.5478219985961914,
        6.448404217518038e-33,
        0.8365949392318726
      ],
      "translation": [
        1.262431263923645,
        -3.957935333251953,
        1.2800028324127197
      ]
    },
    {
      "name": "joint9_09",
      "rotation": [
        3.1262793885736914e-33,
        0.502395510673523,
        -5.3804216820479105e-33,
        0.8646379113197327
      ],
      "translation": [
        -0.5359535217285156,
        -5.69073486328125,
        1.2264611721038818
      ]
    },
    {
      "name": "joint8_010",
      "rotation": [
        -0.0,
        -1.5407439555097887e-33,
        -5.333929594775943e-34,
        1.0
      ],
      "translation": [
        -3.9809162616729736,
        -4.734392166137695,
        0.02011045441031456
      ]
    },
    {
      "name": "joint13_011",
      "rotation": [
        0.378557950258255,
        0.5972385406494141,
        -0.378557950258255,
        0.5972385406494141
      ],
      "translation": [
        -2.5360772609710693,
        -1.5116708278656006,
        12.24755859375
      ]
    },
    {
      "name": "joint14_012",
      "rotation": [
        0.378557950258255,
        0.5972385406494141,
        -0.378557950258255,
        0.5972385406494141
      ],
      "translation": [
        -1.936133861541748,
        -1.5116708278656006,
        -11.85676383972168
      ]
    },
    {
      "name": "LP_Buste",
      "scale": [
        10.0,
        10.0,
        10.0
      ],
      "translation": [
        -3.3974647521972656e-06,
        38.34621047973633,
        0.41257381439208984
      ]
    }
  ],
  "samplers": [
    {
      "magFilter": 9729,
      "minFilter": 9987,
      "wrapS": 10497,
      "wrapT": 10497
    }
  ],
  "scene": 0,
  "scenes": [
    {
      "name": "Sketchfab_Scene",
      "nodes": [
        0
      ]
    }
  ],
  "skins": [
    {
      "inverseBindMatrices": 10,
      "joints": [
        6,
        10,
        11,
        12,
        13,
        14,
        15,
        16,
        17,
        18,
        19,
        20,
        21,
        22
      ],
      "skeleton": 6
    }
  ],
  "textures": [
    {
      "sampler": 0,
      "source": 0
    },
    {
      "sampler": 0,
      "source": 1
    },
    {
      "sampler": 0,
      "source": 2
    },
    {
      "sampler": 0,
      "source": 3
    },
    {
      "sampler": 0,
      "source": 4
    },
    {
      "sampler": 0,
      "source": 5
    }
  ]
}
